# xmcd
#
# Track frame offsets:
#	150
#	13867
#	23131
#	34235
#	43879
#	54169
#	64335
#	76280
#	87927
#	99191
#
# Disc length: 1455 seconds
#
# Revision: 1
# Processed by: cddbd v1.5.2PL0 Copyright (c) Steve Scherf et al.
# Submitted via: audiograbber 1.83.01
#
DISCID=7605ad0a
DTITLE=Various Artist - Country Classics - Hits Of 1965
DYEAR=1999
DGENRE=Oldies
TTITLE0=Wilma Burgess - Baby
TTITLE1=Jimmy Dean - The First Thing Every Morning (and The Last Thing Every Ni
TTITLE1=ght)
TTITLE2='Little' Jimmy Dickens - May The Bird Of Paradise Fly Up Your Nose
TTITLE3=Dave Dudley - Truck Drivin' Son-Of-A-Gun
TTITLE4=David Houston - Livin' In A House Full Of Love
TTITLE5=Warner Mack - The Bridge Washed Out
TTITLE6=Jody Miller - Queen Of The House
TTITLE7=Del Reeves - The Belles Of Southern Bell
TTITLE8=Connie Smith - If I Talk To Him
TTITLE9=Porter Wagoner - Green, Green Grass Of Home
EXTD=
EXTT0=
EXTT1=
EXTT2=
EXTT3=
EXTT4=
EXTT5=
EXTT6=
EXTT7=
EXTT8=
EXTT9=
PLAYORDER=
